<svg xmlns="http://www.w3.org/2000/svg" xmlns:svg="http://www.w3.org/2000/svg" id="svg8" width="750" height="500" version="1.1" viewBox="0 0 198.437 132.292"><metadata id="metadata5"/><g style="display:inline" id="layer1"><rect style="fill:#ffff63;fill-opacity:1;stroke-width:1.82562;stroke-linecap:round;stroke-linejoin:round;paint-order:stroke markers fill" id="rect833" width="198.438" height="132.292" x="0" y="0"/><path style="fill:#009;fill-opacity:1;stroke:none;stroke-width:.264583px;stroke-linecap:butt;stroke-linejoin:miter;stroke-opacity:1" id="path1104" d="M 0,132.29167 H 198.4375 V 66.145837 H 0 Z"/><path id="path1548" d="M 99.21875 27.78125 C 78.093262 27.78125 60.853516 45.020996 60.853516 66.146484 C 60.853516 87.271972 78.093262 104.50977 99.21875 104.50977 C 119.98783 104.50977 136.91039 87.823923 137.47852 67.1875 A 5.2916498 5.2916498 0 0 0 137.58398 66.146484 A 5.2916498 5.2916498 0 0 0 137.47656 65.089844 C 136.90023 44.460677 119.98256 27.781249 99.21875 27.78125 z M 99.21875 38.365234 C 114.6246 38.365233 127 50.740635 127 66.146484 C 127 81.552333 114.6246 93.927735 99.21875 93.927734 C 83.812902 93.927734 71.4375 81.552333 71.4375 66.146484 C 71.4375 50.740636 83.812902 38.365234 99.21875 38.365234 z" style="color:#000;font-style:normal;font-variant:normal;font-weight:400;font-stretch:normal;font-size:medium;line-height:normal;font-family:sans-serif;font-variant-ligatures:normal;font-variant-position:normal;font-variant-caps:normal;font-variant-numeric:normal;font-variant-alternates:normal;font-variant-east-asian:normal;font-feature-settings:normal;font-variation-settings:normal;text-indent:0;text-align:start;text-decoration:none;text-decoration-line:none;text-decoration-style:solid;text-decoration-color:#000;letter-spacing:normal;word-spacing:normal;text-transform:none;writing-mode:lr-tb;direction:ltr;text-orientation:mixed;dominant-baseline:auto;baseline-shift:baseline;text-anchor:start;white-space:normal;shape-padding:0;shape-margin:0;inline-size:0;clip-rule:nonzero;display:inline;overflow:visible;visibility:visible;isolation:auto;mix-blend-mode:normal;color-interpolation:sRGB;color-interpolation-filters:linearRGB;solid-color:#000;solid-opacity:1;vector-effect:none;fill:#009;fill-opacity:1;fill-rule:nonzero;stroke:none;stroke-width:10.5833;stroke-linecap:round;stroke-linejoin:round;stroke-miterlimit:4;stroke-dasharray:none;stroke-dashoffset:0;stroke-opacity:1;paint-order:stroke markers fill;color-rendering:auto;image-rendering:auto;shape-rendering:auto;text-rendering:auto;enable-background:accumulate;stop-color:#000;stop-opacity:1;opacity:1"/><circle id="circle1543" cx="99.219" cy="66.146" r="33.073" style="fill:#ffff63;fill-opacity:1;stroke:none;stroke-width:10.5833332;stroke-linecap:round;stroke-linejoin:round;stroke-miterlimit:4;stroke-dasharray:none;stroke-opacity:1;paint-order:stroke markers fill"/><path id="path864" d="m 118.96496,66.145835 c 0,5.169546 -2.12811,10.307258 -5.78353,13.962678 -3.65542,3.655421 -8.79314,5.783531 -13.962681,5.783531 -5.169546,0 -10.307258,-2.12811 -13.962679,-5.783531 -3.655421,-3.65542 -5.783531,-8.793132 -5.783532,-13.962678" style="fill:none;stroke:#009;stroke-width:5.29167;stroke-linecap:round;stroke-linejoin:miter;stroke-miterlimit:4;stroke-dasharray:none;stroke-opacity:1"/><path id="path1533" d="M 99.21875 5.6230469 A 2.6458333 2.6458333 0 0 0 96.572266 8.2675781 C 96.57253 12.27626 96.572266 20.294922 96.572266 20.294922 A 2.6458333 2.6458333 0 0 0 99.21875 22.941406 A 2.6458333 2.6458333 0 0 0 101.86523 20.294922 C 101.86523 20.294922 101.8655 12.276957 101.86523 8.2675781 A 2.6458333 2.6458333 0 0 0 99.21875 5.6230469 z" style="color:#000;font-style:normal;font-variant:normal;font-weight:400;font-stretch:normal;font-size:medium;line-height:normal;font-family:sans-serif;font-variant-ligatures:normal;font-variant-position:normal;font-variant-caps:normal;font-variant-numeric:normal;font-variant-alternates:normal;font-variant-east-asian:normal;font-feature-settings:normal;font-variation-settings:normal;text-indent:0;text-align:start;text-decoration:none;text-decoration-line:none;text-decoration-style:solid;text-decoration-color:#000;letter-spacing:normal;word-spacing:normal;text-transform:none;writing-mode:lr-tb;direction:ltr;text-orientation:mixed;dominant-baseline:auto;baseline-shift:baseline;text-anchor:start;white-space:normal;shape-padding:0;shape-margin:0;inline-size:0;clip-rule:nonzero;display:inline;overflow:visible;visibility:visible;isolation:auto;mix-blend-mode:normal;color-interpolation:sRGB;color-interpolation-filters:linearRGB;solid-color:#000;solid-opacity:1;vector-effect:none;fill:#009;fill-opacity:1;fill-rule:nonzero;stroke:none;stroke-width:5.29167;stroke-linecap:round;stroke-linejoin:miter;stroke-miterlimit:4;stroke-dasharray:none;stroke-dashoffset:0;stroke-opacity:1;color-rendering:auto;image-rendering:auto;shape-rendering:auto;text-rendering:auto;enable-background:accumulate;stop-color:#000;stop-opacity:1;opacity:1"/><path id="path1537" d="M 128.17578 13.376953 A 2.6458333 2.6458333 0 0 0 125.86523 14.699219 C 123.86112 18.17097 119.85352 25.115234 119.85352 25.115234 A 2.6458333 2.6458333 0 0 0 120.82227 28.728516 A 2.6458333 2.6458333 0 0 0 124.43555 27.759766 C 124.43555 27.759766 128.44475 20.81806 130.44922 17.345703 A 2.6458333 2.6458333 0 0 0 129.48047 13.730469 A 2.6458333 2.6458333 0 0 0 128.17578 13.376953 z" style="color:#000;font-style:normal;font-variant:normal;font-weight:400;font-stretch:normal;font-size:medium;line-height:normal;font-family:sans-serif;font-variant-ligatures:normal;font-variant-position:normal;font-variant-caps:normal;font-variant-numeric:normal;font-variant-alternates:normal;font-variant-east-asian:normal;font-feature-settings:normal;font-variation-settings:normal;text-indent:0;text-align:start;text-decoration:none;text-decoration-line:none;text-decoration-style:solid;text-decoration-color:#000;letter-spacing:normal;word-spacing:normal;text-transform:none;writing-mode:lr-tb;direction:ltr;text-orientation:mixed;dominant-baseline:auto;baseline-shift:baseline;text-anchor:start;white-space:normal;shape-padding:0;shape-margin:0;inline-size:0;clip-rule:nonzero;display:inline;overflow:visible;visibility:visible;isolation:auto;mix-blend-mode:normal;color-interpolation:sRGB;color-interpolation-filters:linearRGB;solid-color:#000;solid-opacity:1;vector-effect:none;fill:#009;fill-opacity:1;fill-rule:nonzero;stroke:none;stroke-width:5.29167;stroke-linecap:round;stroke-linejoin:miter;stroke-miterlimit:4;stroke-dasharray:none;stroke-dashoffset:0;stroke-opacity:1;color-rendering:auto;image-rendering:auto;shape-rendering:auto;text-rendering:auto;enable-background:accumulate;stop-color:#000;stop-opacity:1;opacity:1"/><path id="path1541" d="M 70.314453 13.376953 A 2.6458333 2.6458333 0 0 0 68.957031 13.730469 A 2.6458333 2.6458333 0 0 0 67.988281 17.345703 C 69.992746 20.81806 74.001953 27.759766 74.001953 27.759766 A 2.6458333 2.6458333 0 0 0 77.615234 28.728516 A 2.6458333 2.6458333 0 0 0 78.583984 25.115234 C 78.583984 25.115234 74.576381 18.17097 72.572266 14.699219 A 2.6458333 2.6458333 0 0 0 70.314453 13.376953 z" style="color:#000;font-style:normal;font-variant:normal;font-weight:400;font-stretch:normal;font-size:medium;line-height:normal;font-family:sans-serif;font-variant-ligatures:normal;font-variant-position:normal;font-variant-caps:normal;font-variant-numeric:normal;font-variant-alternates:normal;font-variant-east-asian:normal;font-feature-settings:normal;font-variation-settings:normal;text-indent:0;text-align:start;text-decoration:none;text-decoration-line:none;text-decoration-style:solid;text-decoration-color:#000;letter-spacing:normal;word-spacing:normal;text-transform:none;writing-mode:lr-tb;direction:ltr;text-orientation:mixed;dominant-baseline:auto;baseline-shift:baseline;text-anchor:start;white-space:normal;shape-padding:0;shape-margin:0;inline-size:0;clip-rule:nonzero;display:inline;overflow:visible;visibility:visible;isolation:auto;mix-blend-mode:normal;color-interpolation:sRGB;color-interpolation-filters:linearRGB;solid-color:#000;solid-opacity:1;vector-effect:none;fill:#009;fill-opacity:1;fill-rule:nonzero;stroke:none;stroke-width:5.29167;stroke-linecap:round;stroke-linejoin:miter;stroke-miterlimit:4;stroke-dasharray:none;stroke-dashoffset:0;stroke-opacity:1;color-rendering:auto;image-rendering:auto;shape-rendering:auto;text-rendering:auto;enable-background:accumulate;stop-color:#000;stop-opacity:1;opacity:1"/></g><g style="display:none" id="layer2"><path style="fill:none;stroke:#000;stroke-width:.264583px;stroke-linecap:butt;stroke-linejoin:miter;stroke-opacity:1" id="path1110" d="m 46.36365,66.145835 h 105.7102"/><path style="fill:none;stroke:#000;stroke-width:.264583px;stroke-linecap:butt;stroke-linejoin:miter;stroke-opacity:1" id="path1110-9-8" d="M 79.472538,13.29074 V 119.00093"/><path id="path1179" d="M 118.96496,13.29074 V 119.00093" style="fill:none;stroke:#000;stroke-width:.264583px;stroke-linecap:butt;stroke-linejoin:miter;stroke-opacity:1"/><path style="fill:none;stroke:#000;stroke-width:.264583px;stroke-linecap:butt;stroke-linejoin:miter;stroke-opacity:1" id="path1183" d="M 152.07385,85.892044 H 46.363656"/><path id="path874" d="M 99.218749,0 V 33.072916" style="fill:none;stroke:#000;stroke-width:.264583px;stroke-linecap:butt;stroke-linejoin:miter;stroke-opacity:1"/><path style="fill:none;stroke:#000;stroke-width:.264583px;stroke-linecap:butt;stroke-linejoin:miter;stroke-opacity:1" id="path878" d="M 115.75521,16.536458 H 82.682291"/><path id="path882" d="M 99.218749,16.536458 V 0" style="fill:none;stroke:#000;stroke-width:.264583px;stroke-linecap:butt;stroke-linejoin:miter;stroke-opacity:1"/><path style="display:inline;fill:none;stroke:#000;stroke-width:.264583px;stroke-linecap:butt;stroke-linejoin:miter;stroke-opacity:1" id="path882-0" d="M 99.218749,33.072916 V 16.536458"/></g></svg>